<mxfile host="app.diagrams.net" modified="2023-09-12T21:34:49.344Z" agent="Mozilla/5.0 (Windows NT 10.0; Win64; x64) AppleWebKit/537.36 (KHTML, like Gecko) Chrome/116.0.0.0 Safari/537.36" etag="llpGYnDRJJHDUy-GOWDK" version="21.6.8" type="device">
  <diagram name="Page-1" id="j73O4bU7WKxvYt2AjXu6">
    <mxGraphModel dx="2534" dy="760" grid="1" gridSize="10" guides="1" tooltips="1" connect="1" arrows="1" fold="1" page="1" pageScale="1" pageWidth="1100" pageHeight="850" math="0" shadow="0">
      <root>
        <mxCell id="0" />
        <mxCell id="1" parent="0" />
        <mxCell id="7hiOgwloVyrjGKSWDI_u-7" style="edgeStyle=orthogonalEdgeStyle;rounded=0;orthogonalLoop=1;jettySize=auto;html=1;exitX=1;exitY=0.5;exitDx=0;exitDy=0;entryX=0;entryY=0.5;entryDx=0;entryDy=0;" edge="1" parent="1" target="7hiOgwloVyrjGKSWDI_u-2">
          <mxGeometry relative="1" as="geometry">
            <mxPoint x="160" y="220" as="sourcePoint" />
          </mxGeometry>
        </mxCell>
        <mxCell id="7hiOgwloVyrjGKSWDI_u-30" value="E(s)" style="edgeLabel;html=1;align=center;verticalAlign=middle;resizable=0;points=[];" vertex="1" connectable="0" parent="7hiOgwloVyrjGKSWDI_u-7">
          <mxGeometry x="-0.206" y="3" relative="1" as="geometry">
            <mxPoint as="offset" />
          </mxGeometry>
        </mxCell>
        <mxCell id="7hiOgwloVyrjGKSWDI_u-8" style="edgeStyle=orthogonalEdgeStyle;rounded=0;orthogonalLoop=1;jettySize=auto;html=1;exitX=1;exitY=0.5;exitDx=0;exitDy=0;entryX=0;entryY=0.5;entryDx=0;entryDy=0;" edge="1" parent="1" source="7hiOgwloVyrjGKSWDI_u-2">
          <mxGeometry relative="1" as="geometry">
            <mxPoint x="480" y="220" as="targetPoint" />
          </mxGeometry>
        </mxCell>
        <mxCell id="7hiOgwloVyrjGKSWDI_u-19" value="F(s)" style="edgeLabel;html=1;align=center;verticalAlign=middle;resizable=0;points=[];" vertex="1" connectable="0" parent="7hiOgwloVyrjGKSWDI_u-8">
          <mxGeometry x="0.2201" y="1" relative="1" as="geometry">
            <mxPoint as="offset" />
          </mxGeometry>
        </mxCell>
        <mxCell id="7hiOgwloVyrjGKSWDI_u-2" value="Controller&lt;br&gt;K(s)" style="rounded=0;whiteSpace=wrap;html=1;" vertex="1" parent="1">
          <mxGeometry x="240" y="160" width="120" height="120" as="geometry" />
        </mxCell>
        <mxCell id="7hiOgwloVyrjGKSWDI_u-9" style="edgeStyle=orthogonalEdgeStyle;rounded=0;orthogonalLoop=1;jettySize=auto;html=1;exitX=1;exitY=0.5;exitDx=0;exitDy=0;entryX=0;entryY=0.5;entryDx=0;entryDy=0;" edge="1" parent="1" target="7hiOgwloVyrjGKSWDI_u-4">
          <mxGeometry relative="1" as="geometry">
            <mxPoint x="520" y="220" as="sourcePoint" />
          </mxGeometry>
        </mxCell>
        <mxCell id="7hiOgwloVyrjGKSWDI_u-10" style="edgeStyle=orthogonalEdgeStyle;rounded=0;orthogonalLoop=1;jettySize=auto;html=1;exitX=1;exitY=0.5;exitDx=0;exitDy=0;entryX=0;entryY=0.5;entryDx=0;entryDy=0;" edge="1" parent="1" source="7hiOgwloVyrjGKSWDI_u-4" target="7hiOgwloVyrjGKSWDI_u-5">
          <mxGeometry relative="1" as="geometry" />
        </mxCell>
        <mxCell id="7hiOgwloVyrjGKSWDI_u-4" value="G(s)" style="rounded=0;whiteSpace=wrap;html=1;" vertex="1" parent="1">
          <mxGeometry x="600" y="160" width="120" height="120" as="geometry" />
        </mxCell>
        <mxCell id="7hiOgwloVyrjGKSWDI_u-11" style="edgeStyle=orthogonalEdgeStyle;rounded=0;orthogonalLoop=1;jettySize=auto;html=1;exitX=1;exitY=0.5;exitDx=0;exitDy=0;entryX=1;entryY=0.5;entryDx=0;entryDy=0;" edge="1" parent="1" source="7hiOgwloVyrjGKSWDI_u-5" target="7hiOgwloVyrjGKSWDI_u-6">
          <mxGeometry relative="1" as="geometry">
            <Array as="points">
              <mxPoint x="1000" y="220" />
              <mxPoint x="1000" y="460" />
            </Array>
          </mxGeometry>
        </mxCell>
        <mxCell id="7hiOgwloVyrjGKSWDI_u-5" value="Integrator&lt;br&gt;k/s" style="rounded=0;whiteSpace=wrap;html=1;" vertex="1" parent="1">
          <mxGeometry x="800" y="160" width="120" height="120" as="geometry" />
        </mxCell>
        <mxCell id="7hiOgwloVyrjGKSWDI_u-12" style="edgeStyle=orthogonalEdgeStyle;rounded=0;orthogonalLoop=1;jettySize=auto;html=1;exitX=0;exitY=0.5;exitDx=0;exitDy=0;entryX=0.5;entryY=1;entryDx=0;entryDy=0;" edge="1" parent="1" source="7hiOgwloVyrjGKSWDI_u-25">
          <mxGeometry relative="1" as="geometry">
            <mxPoint x="140" y="240" as="targetPoint" />
          </mxGeometry>
        </mxCell>
        <mxCell id="7hiOgwloVyrjGKSWDI_u-6" value="Feedback Sensor&lt;br&gt;H(s)" style="rounded=0;whiteSpace=wrap;html=1;" vertex="1" parent="1">
          <mxGeometry x="440" y="400" width="120" height="120" as="geometry" />
        </mxCell>
        <mxCell id="7hiOgwloVyrjGKSWDI_u-14" style="edgeStyle=orthogonalEdgeStyle;rounded=0;orthogonalLoop=1;jettySize=auto;html=1;entryX=0;entryY=0.5;entryDx=0;entryDy=0;" edge="1" parent="1">
          <mxGeometry relative="1" as="geometry">
            <mxPoint x="-10" y="220" as="sourcePoint" />
            <mxPoint x="120" y="220" as="targetPoint" />
          </mxGeometry>
        </mxCell>
        <mxCell id="7hiOgwloVyrjGKSWDI_u-20" value="X(s)" style="edgeLabel;html=1;align=center;verticalAlign=middle;resizable=0;points=[];" vertex="1" connectable="0" parent="7hiOgwloVyrjGKSWDI_u-14">
          <mxGeometry x="-0.5096" y="1" relative="1" as="geometry">
            <mxPoint x="-42" y="1" as="offset" />
          </mxGeometry>
        </mxCell>
        <mxCell id="7hiOgwloVyrjGKSWDI_u-16" style="edgeStyle=orthogonalEdgeStyle;rounded=0;orthogonalLoop=1;jettySize=auto;html=1;entryX=0.5;entryY=0;entryDx=0;entryDy=0;" edge="1" parent="1">
          <mxGeometry relative="1" as="geometry">
            <mxPoint x="500" y="120" as="sourcePoint" />
            <mxPoint x="500" y="200" as="targetPoint" />
          </mxGeometry>
        </mxCell>
        <mxCell id="7hiOgwloVyrjGKSWDI_u-21" value="Gravity" style="edgeLabel;html=1;align=center;verticalAlign=middle;resizable=0;points=[];" vertex="1" connectable="0" parent="7hiOgwloVyrjGKSWDI_u-16">
          <mxGeometry x="-0.875" relative="1" as="geometry">
            <mxPoint as="offset" />
          </mxGeometry>
        </mxCell>
        <mxCell id="7hiOgwloVyrjGKSWDI_u-17" value="" style="shape=sumEllipse;perimeter=ellipsePerimeter;whiteSpace=wrap;html=1;backgroundOutline=1;" vertex="1" parent="1">
          <mxGeometry x="120" y="200" width="40" height="40" as="geometry" />
        </mxCell>
        <mxCell id="7hiOgwloVyrjGKSWDI_u-18" value="" style="shape=sumEllipse;perimeter=ellipsePerimeter;whiteSpace=wrap;html=1;backgroundOutline=1;" vertex="1" parent="1">
          <mxGeometry x="480.01" y="200" width="40" height="40" as="geometry" />
        </mxCell>
        <mxCell id="7hiOgwloVyrjGKSWDI_u-23" value="Y(s)" style="text;html=1;align=center;verticalAlign=middle;resizable=0;points=[];autosize=1;strokeColor=none;fillColor=none;" vertex="1" parent="1">
          <mxGeometry x="1160" y="205" width="50" height="30" as="geometry" />
        </mxCell>
        <mxCell id="7hiOgwloVyrjGKSWDI_u-24" value="+" style="text;html=1;align=center;verticalAlign=middle;resizable=0;points=[];autosize=1;strokeColor=none;fillColor=none;" vertex="1" parent="1">
          <mxGeometry x="110" y="205" width="30" height="30" as="geometry" />
        </mxCell>
        <mxCell id="7hiOgwloVyrjGKSWDI_u-26" value="" style="edgeStyle=orthogonalEdgeStyle;rounded=0;orthogonalLoop=1;jettySize=auto;html=1;exitX=0;exitY=0.5;exitDx=0;exitDy=0;entryX=0.5;entryY=1;entryDx=0;entryDy=0;" edge="1" parent="1" source="7hiOgwloVyrjGKSWDI_u-6" target="7hiOgwloVyrjGKSWDI_u-25">
          <mxGeometry relative="1" as="geometry">
            <mxPoint x="440" y="460" as="sourcePoint" />
            <mxPoint x="140" y="240" as="targetPoint" />
          </mxGeometry>
        </mxCell>
        <mxCell id="7hiOgwloVyrjGKSWDI_u-25" value="--" style="text;html=1;align=center;verticalAlign=middle;resizable=0;points=[];autosize=1;strokeColor=none;fillColor=none;" vertex="1" parent="1">
          <mxGeometry x="125" y="215" width="30" height="30" as="geometry" />
        </mxCell>
        <mxCell id="7hiOgwloVyrjGKSWDI_u-27" value="+" style="text;html=1;align=center;verticalAlign=middle;resizable=0;points=[];autosize=1;strokeColor=none;fillColor=none;" vertex="1" parent="1">
          <mxGeometry x="470" y="205" width="30" height="30" as="geometry" />
        </mxCell>
        <mxCell id="7hiOgwloVyrjGKSWDI_u-28" value="+" style="text;html=1;align=center;verticalAlign=middle;resizable=0;points=[];autosize=1;strokeColor=none;fillColor=none;" vertex="1" parent="1">
          <mxGeometry x="485.01" y="195" width="30" height="30" as="geometry" />
        </mxCell>
        <mxCell id="7hiOgwloVyrjGKSWDI_u-29" value="KITTICOPTER SYSTEM BLOCK DIAGRAM" style="text;html=1;align=center;verticalAlign=middle;resizable=0;points=[];autosize=1;strokeColor=none;fillColor=none;" vertex="1" parent="1">
          <mxGeometry x="370.01" y="50" width="260" height="30" as="geometry" />
        </mxCell>
        <mxCell id="7hiOgwloVyrjGKSWDI_u-31" value="" style="endArrow=classic;html=1;rounded=0;" edge="1" parent="1" target="7hiOgwloVyrjGKSWDI_u-23">
          <mxGeometry width="50" height="50" relative="1" as="geometry">
            <mxPoint x="1000" y="219.5" as="sourcePoint" />
            <mxPoint x="1080" y="219.5" as="targetPoint" />
          </mxGeometry>
        </mxCell>
      </root>
    </mxGraphModel>
  </diagram>
</mxfile>
